<svg width="22" height="22" viewBox="0 0 22 22" fill="none" xmlns="http://www.w3.org/2000/svg">
<path d="M15.5832 19.25V17.4167C15.5832 16.4442 15.1969 15.5116 14.5092 14.8239C13.8216 14.1363 12.889 13.75 11.9165 13.75H4.58317C3.61071 13.75 2.67808 14.1363 1.99045 14.8239C1.30281 15.5116 0.916504 16.4442 0.916504 17.4167V19.25" stroke="#2D3748" stroke-width="1.5" stroke-linecap="round" stroke-linejoin="round"/>
<path d="M8.25016 10.0833C10.2752 10.0833 11.9168 8.44171 11.9168 6.41667C11.9168 4.39162 10.2752 2.75 8.25016 2.75C6.22512 2.75 4.5835 4.39162 4.5835 6.41667C4.5835 8.44171 6.22512 10.0833 8.25016 10.0833Z" stroke="#2D3748" stroke-width="1.5" stroke-linecap="round" stroke-linejoin="round"/>
<path d="M21.0835 19.2525V17.4192C21.0829 16.6068 20.8125 15.8176 20.3147 15.1755C19.817 14.5334 19.1201 14.0748 18.3335 13.8717" stroke="#2D3748" stroke-width="1.5" stroke-linecap="round" stroke-linejoin="round"/>
<path d="M14.6665 2.8717C15.4552 3.07365 16.1543 3.53235 16.6535 4.17549C17.1527 4.81863 17.4237 5.60963 17.4237 6.42379C17.4237 7.23794 17.1527 8.02894 16.6535 8.67209C16.1543 9.31523 15.4552 9.77393 14.6665 9.97587" stroke="#2D3748" stroke-width="1.5" stroke-linecap="round" stroke-linejoin="round"/>
</svg>
