<svg width="22" height="29" viewBox="0 0 22 29" fill="none" xmlns="http://www.w3.org/2000/svg">
<path d="M15.4705 27.7777L10.6879 23.314H3.514C2.24834 23.314 1.22233 22.3564 1.22233 21.1751V12.8055C1.22233 11.6242 2.24834 10.6666 3.514 10.6666H17.264C18.5297 10.6666 19.5557 11.6242 19.5557 12.8055V21.1751C19.5557 22.3564 18.5297 23.314 17.264 23.314H15.4705V27.7777Z" stroke="#00ADFF" stroke-width="1.83333" stroke-linecap="round" stroke-linejoin="round"/>
<path d="M8.55534 16.1667C8.55534 15.4877 7.94423 14.3334 6.72201 14.3334C5.49978 14.3334 4.88867 15.4877 4.88867 16.1667" stroke="#00ADFF" stroke-width="1.22222" stroke-miterlimit="10" stroke-linecap="round"/>
<path d="M15.8888 16.1667C15.8888 15.4877 15.2777 14.3334 14.0555 14.3334C12.8333 14.3334 12.2222 15.4877 12.2222 16.1667" stroke="#00ADFF" stroke-width="1.22222" stroke-miterlimit="10" stroke-linecap="round"/>
<path d="M12.1396 7.04773H9.56292C9.08251 7.04773 8.68945 7.44079 8.68945 7.92119V9.79914C8.68945 10.2795 9.08251 10.6726 9.56292 10.6726H12.1396C12.62 10.6726 13.0131 10.2795 13.0131 9.79914V7.92119C13.0131 7.44079 12.62 7.04773 12.1396 7.04773Z" fill="#00ADFF"/>
<path d="M10.826 7.04864C10.826 7.04864 10.7823 3.42376 8.29297 2.55029" stroke="#00ADFF" stroke-width="0.873465" stroke-miterlimit="10"/>
<path d="M7.37785 3.42196C8.07733 3.42196 8.64438 2.85492 8.64438 2.15544C8.64438 1.45596 8.07733 0.888916 7.37785 0.888916C6.67837 0.888916 6.11133 1.45596 6.11133 2.15544C6.11133 2.85492 6.67837 3.42196 7.37785 3.42196Z" fill="#00ADFF"/>
</svg>
