<svg width="22" height="22" viewBox="0 0 22 22" fill="none" xmlns="http://www.w3.org/2000/svg">
<path d="M13.4762 5.77838C13.3083 5.94973 13.2142 6.18011 13.2142 6.42005C13.2142 6.65999 13.3083 6.89036 13.4762 7.06171L14.9429 8.52838C15.1142 8.69634 15.3446 8.79042 15.5845 8.79042C15.8245 8.79042 16.0549 8.69634 16.2262 8.52838L19.682 5.07255C20.143 6.09114 20.2825 7.22601 20.0821 8.32593C19.8817 9.42585 19.3509 10.4386 18.5603 11.2291C17.7697 12.0197 16.757 12.5506 15.6571 12.751C14.5572 12.9514 13.4223 12.8118 12.4037 12.3509L6.06954 18.685C5.70487 19.0497 5.21027 19.2546 4.69454 19.2546C4.17882 19.2546 3.68422 19.0497 3.31954 18.685C2.95487 18.3204 2.75 17.8258 2.75 17.31C2.75 16.7943 2.95487 16.2997 3.31954 15.935L9.65371 9.60088C9.19278 8.58229 9.05322 7.44741 9.25362 6.3475C9.45403 5.24758 9.98489 4.23485 10.7755 3.44429C11.566 2.65373 12.5787 2.12287 13.6787 1.92246C14.7786 1.72205 15.9135 1.86161 16.932 2.32255L13.4854 5.76921L13.4762 5.77838Z" stroke="#2D3748" stroke-width="1.5" stroke-linecap="round" stroke-linejoin="round"/>
</svg>
