<svg width="22" height="22" viewBox="0 0 22 22" fill="none" xmlns="http://www.w3.org/2000/svg">
<path d="M14.6665 2.75H0.916504V14.6667H14.6665V2.75Z" stroke="#2D3748" stroke-width="1.5" stroke-linecap="round" stroke-linejoin="round"/>
<path d="M14.6665 7.33337H18.3332L21.0832 10.0834V14.6667H14.6665V7.33337Z" stroke="#2D3748" stroke-width="1.5" stroke-linecap="round" stroke-linejoin="round"/>
<path d="M5.04167 19.25C6.30732 19.25 7.33333 18.2239 7.33333 16.9583C7.33333 15.6926 6.30732 14.6666 5.04167 14.6666C3.77601 14.6666 2.75 15.6926 2.75 16.9583C2.75 18.2239 3.77601 19.25 5.04167 19.25Z" stroke="#2D3748" stroke-width="1.5" stroke-linecap="round" stroke-linejoin="round"/>
<path d="M16.9582 19.25C18.2238 19.25 19.2498 18.2239 19.2498 16.9583C19.2498 15.6926 18.2238 14.6666 16.9582 14.6666C15.6925 14.6666 14.6665 15.6926 14.6665 16.9583C14.6665 18.2239 15.6925 19.25 16.9582 19.25Z" stroke="#2D3748" stroke-width="1.5" stroke-linecap="round" stroke-linejoin="round"/>
</svg>
