<svg width="59" height="59" viewBox="0 0 59 59" fill="none" xmlns="http://www.w3.org/2000/svg">
<path fill-rule="evenodd" clip-rule="evenodd" d="M15.0929 21.4028H15.0301L14.9701 21.4216L8.48554 23.448L3.56511 22.4387C3.53351 22.0129 3.17802 21.6772 2.74415 21.6772C2.28948 21.6772 1.9209 22.0458 1.9209 22.5005C1.9209 22.9552 2.28948 23.3237 2.74415 23.3237C2.90368 23.3237 3.05261 23.2784 3.17874 23.1998L8.42419 24.2758L8.52827 24.2972L8.62968 24.2655L15.1557 22.2261H19.8443L25.7952 29.1027V39.6516H26.6184V28.9493V28.7959L26.518 28.6799L20.3437 21.5451L20.2206 21.4028H20.0324H15.0929Z" fill="url(#paint0_linear_11862_921)"/>
<path fill-rule="evenodd" clip-rule="evenodd" d="M32.793 3.73168C33.0391 3.58933 33.2046 3.32328 33.2046 3.01856C33.2046 2.56389 32.8361 2.19531 32.3814 2.19531C31.9267 2.19531 31.5581 2.56389 31.5581 3.01856C31.5581 3.32328 31.7237 3.58933 31.9698 3.73168V13.2966L28.4986 17.4353L28.4023 17.5501V17.6999V30.323V30.4528L28.4768 30.5591L29.3628 31.8249V39.6532H30.1861V31.6951V31.5654L30.1116 31.4591L29.2256 30.1933V17.8496L32.6968 13.7109L32.793 13.5962V13.4464V3.73168Z" fill="url(#paint1_linear_11862_921)"/>
<path fill-rule="evenodd" clip-rule="evenodd" d="M15.0989 13.5023C14.9526 13.6357 14.758 13.7171 14.5444 13.7171C14.0898 13.7171 13.7212 13.3485 13.7212 12.8938C13.7212 12.4391 14.0898 12.0706 14.5444 12.0706C14.9364 12.0706 15.2644 12.3445 15.3474 12.7113L17.0901 13.0381L17.2203 13.0625L17.3118 13.1583L29.1117 25.507L28.5165 26.0758L16.8081 13.8228L15.0989 13.5023Z" fill="url(#paint2_linear_11862_921)"/>
<path fill-rule="evenodd" clip-rule="evenodd" d="M16.472 26.2715C16.3435 26.9572 15.9759 28.1059 15.2937 29.2672C14.6121 30.4274 13.6318 31.5744 12.2908 32.2965C9.64939 33.7188 6.80042 35.0164 5.46508 35.5927C5.32249 35.4743 5.13929 35.4031 4.93946 35.4031C4.48479 35.4031 4.11621 35.7717 4.11621 36.2263C4.11621 36.681 4.48479 37.0496 4.93946 37.0496C5.34654 37.0496 5.6846 36.7541 5.75092 36.366C7.086 35.7911 9.98749 34.4717 12.6811 33.0214C14.194 32.2067 15.2718 30.9297 16.0035 29.6842C16.7346 28.4397 17.1353 27.2011 17.2812 26.4232L16.472 26.2715Z" fill="url(#paint3_linear_11862_921)"/>
<path fill-rule="evenodd" clip-rule="evenodd" d="M16.2207 27.8745C13.8217 28.6067 10.1808 29.7395 7.05487 30.7582C5.49233 31.2674 4.0556 31.7491 2.96615 32.1383C2.42191 32.3328 1.96036 32.5056 1.61163 32.6482C1.49141 32.6974 1.38255 32.7438 1.28708 32.787C1.15727 32.7059 1.00321 32.6589 0.837985 32.6589C0.375178 32.6589 0 33.0275 0 33.4821C0 33.9368 0.375178 34.3054 0.837985 34.3054C1.28952 34.3054 1.65764 33.9545 1.6753 33.5152C1.74735 33.4834 1.83003 33.4483 1.92323 33.4102C2.25518 33.2745 2.7034 33.1064 3.24316 32.9136C4.32171 32.5282 5.74984 32.0494 7.30995 31.541C10.4293 30.5244 14.065 29.3932 16.461 28.6619L16.2207 27.8745Z" fill="url(#paint4_linear_11862_921)"/>
<path fill-rule="evenodd" clip-rule="evenodd" d="M57.3533 21.4046C57.808 21.4046 58.1765 21.036 58.1765 20.5813C58.1765 20.1266 57.808 19.7581 57.3533 19.7581C56.9526 19.7581 56.6188 20.0443 56.5451 20.4235L51.8413 21.1291L39.942 20.7188L39.7977 20.7138L39.6819 20.8001L32.6842 26.014L32.5542 26.1109L32.5252 26.2704L31.702 30.7983L31.6953 30.8348V30.8719V39.6533H32.5186V30.9091L33.3062 26.5772L40.058 21.5465L51.8508 21.9531L51.8886 21.9545L51.926 21.9488L56.8263 21.2138C56.9691 21.3329 57.1528 21.4046 57.3533 21.4046Z" fill="url(#paint5_linear_11862_921)"/>
<path fill-rule="evenodd" clip-rule="evenodd" d="M38.7094 28.1555L38.5057 28.0737L38.3243 28.1973L31.8755 32.5879L32.3388 33.2684L38.6062 29.0013L54.0651 35.2113C54.1089 35.6247 54.4587 35.9468 54.8837 35.9468C55.3384 35.9468 55.707 35.5782 55.707 35.1235C55.707 34.6688 55.3384 34.3003 54.8837 34.3003C54.7025 34.3003 54.5348 34.3589 54.3988 34.4581L38.7094 28.1555Z" fill="url(#paint6_linear_11862_921)"/>
<path fill-rule="evenodd" clip-rule="evenodd" d="M38.6014 24.7382L38.3335 24.6057L38.1246 24.8193L31.9502 31.1309L32.5387 31.7066L38.5041 25.6086L51.5455 32.0621L51.6556 32.1166L51.7776 32.1018L55.9545 31.5955C56.103 31.7408 56.3062 31.8304 56.5303 31.8304C56.985 31.8304 57.3536 31.4618 57.3536 31.0071C57.3536 30.5525 56.985 30.1839 56.5303 30.1839C56.1498 30.1839 55.8296 30.4421 55.7353 30.7928L51.8005 31.2698L38.6014 24.7382Z" fill="url(#paint7_linear_11862_921)"/>
<path fill-rule="evenodd" clip-rule="evenodd" d="M48.0137 23.8929L47.8553 23.8413L47.7056 23.9143L42.0801 26.6585L42.441 27.3984L47.9168 24.7273L54.0701 26.7338L54.1467 26.7587L54.227 26.753L57.7554 26.501C57.8786 26.5746 58.0227 26.6168 58.1767 26.6168C58.6314 26.6168 59 26.2483 59 25.7936C59 25.3389 58.6314 24.9703 58.1767 24.9703C57.7523 24.9703 57.4029 25.2915 57.3583 25.704L54.2487 25.9261L48.0137 23.8929Z" fill="url(#paint8_linear_11862_921)"/>
<path fill-rule="evenodd" clip-rule="evenodd" d="M51.8642 11.2542C52.3189 11.2542 52.6874 10.8856 52.6874 10.4309C52.6874 9.97625 52.3189 9.60767 51.8642 9.60767C51.4095 9.60767 51.0409 9.97625 51.0409 10.4309C51.0409 10.4717 51.0439 10.5118 51.0496 10.551L44.9329 18.2633L38.1192 18.6641L37.9682 18.673L37.8588 18.7776L31.5472 24.8148L31.4986 24.8613L31.4673 24.9209L28.5859 30.4092L29.3148 30.7919L32.1649 25.3632L38.3186 19.4771L45.1652 19.0743L45.349 19.0635L45.4635 18.9192L51.582 11.2045C51.67 11.2366 51.7651 11.2542 51.8642 11.2542Z" fill="url(#paint9_linear_11862_921)"/>
<path fill-rule="evenodd" clip-rule="evenodd" d="M3.94116 16.5859C3.78534 16.7117 3.58345 16.7876 3.36287 16.7876C2.8696 16.7876 2.46973 16.408 2.46973 15.9398C2.46973 15.4716 2.8696 15.092 3.36287 15.092C3.81372 15.092 4.18655 15.4091 4.24734 15.8212L7.92036 17.1426L7.97927 17.1638L8.02922 17.2015L14.2434 21.8985L13.747 22.5553L7.58276 17.896L3.94116 16.5859Z" fill="url(#paint10_linear_11862_921)"/>
<path fill-rule="evenodd" clip-rule="evenodd" d="M28.0532 1.37471C28.1849 1.22875 28.2652 1.03537 28.2652 0.823251C28.2652 0.368582 27.8966 0 27.4419 0C26.9872 0 26.6187 0.368582 26.6187 0.823251C26.6187 1.21895 26.8978 1.54944 27.2699 1.62851L29.4659 8.73306L27.221 12.6947L27.1248 12.8643L27.1952 13.0462L28.8417 17.2996L29.6095 17.0025L28.0334 12.9309L30.2698 8.98427L30.3574 8.82962L30.3049 8.65978L28.0532 1.37471Z" fill="url(#paint11_linear_11862_921)"/>
<path fill-rule="evenodd" clip-rule="evenodd" d="M21.8047 7.30293C22.0572 7.16234 22.228 6.89269 22.228 6.58314C22.228 6.12847 21.8595 5.75989 21.4048 5.75989C20.9501 5.75989 20.5815 6.12847 20.5815 6.58314C20.5815 6.88293 20.7418 7.1453 20.9813 7.28926L20.7191 13.9763L20.7129 14.1347L20.8145 14.2564L28.4982 23.4493L29.1299 22.9214L21.5479 13.8501L21.8047 7.30293Z" fill="url(#paint12_linear_11862_921)"/>
<path fill-rule="evenodd" clip-rule="evenodd" d="M21.9468 26.4454C21.7051 26.2382 21.2014 26.0223 20.4479 25.8676C19.6744 25.7088 18.5887 25.6046 17.1352 25.6605C15.2471 25.7331 13.974 26.428 12.9638 27.0202L12.7852 27.1253C12.3534 27.3796 11.9916 27.5927 11.6348 27.7347C11.245 27.8899 10.8927 27.9459 10.5141 27.8647C10.0733 27.7703 9.57422 27.5785 8.97138 27.3399L8.86412 27.2974L8.86411 27.2974C8.29767 27.073 7.65687 26.8191 6.94524 26.604C5.50309 26.168 3.76274 25.8881 1.64726 26.2822C1.50152 26.1514 1.30888 26.0719 1.09766 26.0719C0.642996 26.0719 0.274414 26.4405 0.274414 26.8951C0.274414 27.3498 0.642996 27.7184 1.09766 27.7184C1.49136 27.7184 1.82051 27.442 1.90171 27.0727C3.81071 26.7363 5.3817 26.9913 6.70699 27.392C7.38454 27.5969 7.996 27.8391 8.56656 28.0651L8.56657 28.0651L8.66847 28.1054C9.25763 28.3385 9.82187 28.5584 10.3416 28.6697C10.9234 28.7944 11.4458 28.696 11.9393 28.4996C12.3595 28.3323 12.7812 28.0836 13.2042 27.834C13.2628 27.7995 13.3215 27.7649 13.3802 27.7305C14.3595 27.1564 15.4876 26.5478 17.1669 26.4832C18.5673 26.4293 19.5855 26.5309 20.2824 26.674C20.9275 26.8065 21.262 26.9671 21.3797 27.0469L25.8723 33.3094L26.5413 32.8295L22.0134 26.5179L21.9845 26.4776L21.9468 26.4454Z" fill="url(#paint13_linear_11862_921)"/>
<path fill-rule="evenodd" clip-rule="evenodd" d="M42.8021 11.2565C43.2595 11.2565 43.6302 10.8874 43.6302 10.4321C43.6302 9.97677 43.2595 9.60767 42.8021 9.60767C42.3626 9.60767 42.0031 9.94858 41.9757 10.3793L36.097 14.0691L36.0364 14.1071L35.9922 14.1634L28.5396 23.6442L29.1868 24.153L36.5952 14.7284L42.3449 11.1196C42.4759 11.2061 42.6331 11.2565 42.8021 11.2565Z" fill="url(#paint14_linear_11862_921)"/>
<path d="M6.17823 54.8485C6.08582 54.8485 6.03962 54.8023 6.03962 54.7099V45.5197C6.03962 45.4273 6.08582 45.3811 6.17823 45.3811H7.07924C7.17165 45.3811 7.21785 45.4273 7.21785 45.5197V49.1098C7.21785 49.3224 7.21785 49.5349 7.21785 49.7475C7.21785 49.96 7.21785 50.1725 7.21785 50.3851C7.21785 50.5976 7.21323 50.8102 7.20399 51.0227H7.21785C7.38419 50.8379 7.55053 50.6531 7.71687 50.4683C7.89245 50.2834 8.06803 50.0986 8.24361 49.9138L9.87927 48.1534C9.91624 48.1072 9.97168 48.0841 10.0456 48.0841H11.2654C11.3301 48.0841 11.3671 48.1025 11.3763 48.1395C11.3948 48.1672 11.3809 48.2042 11.3347 48.2504L9.03372 50.6069L11.5427 54.6822C11.5704 54.7284 11.575 54.77 11.5565 54.8069C11.538 54.8346 11.5011 54.8485 11.4456 54.8485H10.3783C10.3136 54.8485 10.2582 54.8162 10.2119 54.7515L8.18816 51.4801L7.21785 52.4643V54.7099C7.21785 54.8023 7.17165 54.8485 7.07924 54.8485H6.17823ZM14.6783 55.0148C14.0869 55.0148 13.6341 54.8162 13.3199 54.4188C13.0057 54.0214 12.8486 53.4485 12.8486 52.7V48.2227C12.8486 48.1303 12.8948 48.0841 12.9872 48.0841H13.8882C13.9806 48.0841 14.0268 48.1303 14.0268 48.2227V52.6445C14.0268 53.0973 14.1054 53.4346 14.2625 53.6564C14.4288 53.869 14.6829 53.9752 15.0248 53.9752C15.3668 53.9752 15.7087 53.869 16.0506 53.6564C16.4018 53.4439 16.8361 53.0742 17.3536 52.5475L17.3259 53.6426C17.0301 53.9475 16.7344 54.2016 16.4387 54.4049C16.143 54.6082 15.8473 54.7607 15.5516 54.8624C15.2651 54.964 14.974 55.0148 14.6783 55.0148ZM17.4506 54.8485C17.4044 54.8485 17.3674 54.8393 17.3397 54.8208C17.312 54.7931 17.2935 54.7561 17.2843 54.7099C17.2566 54.5343 17.2334 54.3541 17.215 54.1693C17.1965 53.9845 17.1826 53.795 17.1734 53.601L17.1041 53.0188V48.2227C17.1041 48.1303 17.1503 48.0841 17.2427 48.0841H18.1437C18.2361 48.0841 18.2823 48.1303 18.2823 48.2227V53.1574C18.2823 53.4069 18.2869 53.6657 18.2962 53.9336C18.3147 54.2016 18.3424 54.4604 18.3793 54.7099C18.3978 54.8023 18.347 54.8485 18.2269 54.8485H17.4506ZM20.5 54.8485C20.4076 54.8485 20.3614 54.8023 20.3614 54.7099V49.7336C20.3614 49.4748 20.3522 49.2253 20.3337 48.9851C20.3245 48.7356 20.3014 48.4861 20.2644 48.2365C20.2459 48.1349 20.2921 48.0841 20.403 48.0841H21.2486C21.2948 48.0841 21.3271 48.0933 21.3456 48.1118C21.3733 48.1303 21.3918 48.1626 21.4011 48.2088C21.438 48.3844 21.4657 48.5877 21.4842 48.8187C21.5027 49.0405 21.5119 49.23 21.5119 49.3871L21.5397 50.1217V54.7099C21.5397 54.8023 21.4935 54.8485 21.4011 54.8485H20.5ZM21.3872 50.5376L21.3595 49.4009C21.5535 49.1144 21.7753 48.8603 22.0248 48.6385C22.2836 48.4167 22.5423 48.2412 22.8011 48.1118C23.0691 47.9824 23.3139 47.9177 23.5357 47.9177C23.7021 47.9177 23.8268 47.9316 23.91 47.9593C23.9562 47.9686 23.9839 47.987 23.9932 48.0148C24.0116 48.0332 24.0255 48.061 24.0347 48.0979C24.0532 48.292 24.0579 48.4907 24.0486 48.694C24.0486 48.8973 24.0347 49.0913 24.007 49.2762C23.9978 49.3224 23.9747 49.3547 23.9377 49.3732C23.91 49.3917 23.873 49.3963 23.8268 49.3871C23.7529 49.3686 23.6743 49.3547 23.5912 49.3455C23.508 49.3362 23.4202 49.3316 23.3278 49.3316C23.0968 49.3316 22.8658 49.3824 22.6347 49.4841C22.4037 49.5857 22.1819 49.729 21.9694 49.9138C21.7568 50.0894 21.5628 50.2973 21.3872 50.5376ZM25.4409 54.8485C25.3485 54.8485 25.3023 54.8023 25.3023 54.7099V49.7336C25.3023 49.4748 25.2931 49.2253 25.2746 48.9851C25.2654 48.7356 25.2423 48.4861 25.2053 48.2365C25.1868 48.1349 25.233 48.0841 25.3439 48.0841H26.1895C26.2357 48.0841 26.268 48.0933 26.2865 48.1118C26.3142 48.1303 26.3327 48.1626 26.3419 48.2088C26.3789 48.3844 26.4066 48.5877 26.4251 48.8187C26.4436 49.0405 26.4528 49.23 26.4528 49.3871L26.4806 50.1217V54.7099C26.4806 54.8023 26.4344 54.8485 26.3419 54.8485H25.4409ZM26.3281 50.5376L26.3004 49.4009C26.4944 49.1144 26.7162 48.8603 26.9657 48.6385C27.2245 48.4167 27.4832 48.2412 27.742 48.1118C28.01 47.9824 28.2548 47.9177 28.4766 47.9177C28.643 47.9177 28.7677 47.9316 28.8509 47.9593C28.8971 47.9686 28.9248 47.987 28.9341 48.0148C28.9525 48.0332 28.9664 48.061 28.9756 48.0979C28.9941 48.292 28.9987 48.4907 28.9895 48.694C28.9895 48.8973 28.9756 49.0913 28.9479 49.2762C28.9387 49.3224 28.9156 49.3547 28.8786 49.3732C28.8509 49.3917 28.8139 49.3963 28.7677 49.3871C28.6938 49.3686 28.6152 49.3547 28.5321 49.3455C28.4489 49.3362 28.3611 49.3316 28.2687 49.3316C28.0377 49.3316 27.8066 49.3824 27.5756 49.4841C27.3446 49.5857 27.1228 49.729 26.9103 49.9138C26.6977 50.0894 26.5037 50.2973 26.3281 50.5376ZM30.3818 54.8485C30.2894 54.8485 30.2432 54.8023 30.2432 54.7099V48.2227C30.2432 48.1303 30.2894 48.0841 30.3818 48.0841H31.2828C31.3752 48.0841 31.4214 48.1303 31.4214 48.2227V54.7099C31.4214 54.8023 31.3752 54.8485 31.2828 54.8485H30.3818ZM30.8393 46.9474C30.5713 46.9474 30.3772 46.8781 30.2571 46.7395C30.1369 46.5916 30.0769 46.4068 30.0769 46.185V46.0464C30.0769 45.8246 30.1369 45.6444 30.2571 45.5058C30.3772 45.358 30.5713 45.284 30.8393 45.284C31.1073 45.284 31.3013 45.358 31.4214 45.5058C31.5416 45.6444 31.6016 45.8246 31.6016 46.0464V46.185C31.6016 46.4068 31.5416 46.5916 31.4214 46.7395C31.3013 46.8781 31.1073 46.9474 30.8393 46.9474ZM36.1808 55.0148C35.2475 55.0148 34.5359 54.7884 34.0462 54.3356C33.5656 53.8828 33.3254 53.1944 33.3254 52.2703V50.6623C33.3254 49.7382 33.5656 49.0498 34.0462 48.5969C34.5267 48.1441 35.2383 47.9177 36.1808 47.9177C37.1142 47.9177 37.8211 48.1441 38.3017 48.5969C38.7914 49.0498 39.0363 49.7382 39.0363 50.6623V52.2703C39.0363 53.1944 38.7961 53.8828 38.3155 54.3356C37.835 54.7884 37.1234 55.0148 36.1808 55.0148ZM36.1808 53.9752C36.7723 53.9752 37.1974 53.8274 37.4561 53.5317C37.7241 53.2267 37.8581 52.7693 37.8581 52.1594V50.7732C37.8581 50.1633 37.7241 49.7105 37.4561 49.4148C37.1974 49.1098 36.7723 48.9573 36.1808 48.9573C35.5894 48.9573 35.1597 49.1098 34.8917 49.4148C34.633 49.7105 34.5036 50.1633 34.5036 50.7732V52.1594C34.5036 52.7693 34.633 53.2267 34.8917 53.5317C35.1597 53.8274 35.5894 53.9752 36.1808 53.9752ZM42.7669 55.0148C42.1755 55.0148 41.7227 54.8162 41.4085 54.4188C41.0943 54.0214 40.9372 53.4485 40.9372 52.7V48.2227C40.9372 48.1303 40.9834 48.0841 41.0758 48.0841H41.9768C42.0692 48.0841 42.1154 48.1303 42.1154 48.2227V52.6445C42.1154 53.0973 42.194 53.4346 42.3511 53.6564C42.5174 53.869 42.7715 53.9752 43.1135 53.9752C43.4554 53.9752 43.7973 53.869 44.1392 53.6564C44.4904 53.4439 44.9247 53.0742 45.4422 52.5475L45.4145 53.6426C45.1188 53.9475 44.8231 54.2016 44.5273 54.4049C44.2316 54.6082 43.9359 54.7607 43.6402 54.8624C43.3537 54.964 43.0626 55.0148 42.7669 55.0148ZM45.5392 54.8485C45.493 54.8485 45.4561 54.8393 45.4283 54.8208C45.4006 54.7931 45.3821 54.7561 45.3729 54.7099C45.3452 54.5343 45.3221 54.3541 45.3036 54.1693C45.2851 53.9845 45.2713 53.795 45.262 53.601L45.1927 53.0188V48.2227C45.1927 48.1303 45.2389 48.0841 45.3313 48.0841H46.2323C46.3247 48.0841 46.3709 48.1303 46.3709 48.2227V53.1574C46.3709 53.4069 46.3756 53.6657 46.3848 53.9336C46.4033 54.2016 46.431 54.4604 46.468 54.7099C46.4864 54.8023 46.4356 54.8485 46.3155 54.8485H45.5392ZM50.6402 55.0148C49.8085 55.0148 49.1847 54.8346 48.7689 54.4742C48.353 54.1046 48.1451 53.5548 48.1451 52.8247C48.1451 52.7416 48.1913 52.7 48.2837 52.7H49.1986C49.2818 52.7 49.3233 52.7369 49.3233 52.8109C49.3233 53.2267 49.425 53.527 49.6283 53.7119C49.8408 53.8967 50.1828 53.9891 50.654 53.9891C51.1069 53.9891 51.4488 53.9152 51.6798 53.7673C51.9108 53.6102 52.0263 53.3884 52.0263 53.102C52.0263 52.8894 51.9617 52.7138 51.8323 52.5752C51.7029 52.4274 51.4996 52.2934 51.2224 52.1732L49.6422 51.5217C49.1339 51.3092 48.7735 51.0689 48.561 50.8009C48.3484 50.5329 48.2421 50.1864 48.2421 49.7613C48.2421 49.1514 48.4362 48.694 48.8243 48.389C49.2124 48.0748 49.79 47.9177 50.557 47.9177C51.3425 47.9177 51.9524 48.0841 52.3867 48.4167C52.8211 48.7402 53.0382 49.2022 53.0382 49.8029C53.0382 49.8861 52.992 49.9277 52.8996 49.9277H51.9848C51.9478 49.9277 51.9155 49.9138 51.8877 49.8861C51.86 49.8491 51.8461 49.789 51.8461 49.7059C51.8461 49.4656 51.7353 49.2808 51.5135 49.1514C51.2917 49.0128 50.9867 48.9435 50.5986 48.9435C50.2012 48.9435 49.9055 49.0128 49.7115 49.1514C49.5174 49.2808 49.4204 49.4841 49.4204 49.7613C49.4204 49.9646 49.4712 50.1171 49.5728 50.2187C49.6837 50.3204 49.9009 50.4405 50.2243 50.5791L51.8046 51.2445C52.2943 51.4478 52.6501 51.6881 52.8719 51.9653C53.0937 52.2425 53.2046 52.5983 53.2046 53.0326C53.2046 53.6703 52.9828 54.1601 52.5392 54.502C52.0957 54.8439 51.4626 55.0148 50.6402 55.0148Z" fill="black"/>
<defs>
<linearGradient id="paint0_linear_11862_921" x1="3.84182" y1="22.6377" x2="26.6184" y2="38.9655" gradientUnits="userSpaceOnUse">
<stop stop-color="#9464AB"/>
<stop offset="1" stop-color="#33CACD"/>
</linearGradient>
<linearGradient id="paint1_linear_11862_921" x1="30.8035" y1="2.19531" x2="30.8035" y2="39.6532" gradientUnits="userSpaceOnUse">
<stop stop-color="#C02EB0"/>
<stop offset="0.489583" stop-color="#0FB8E4"/>
<stop offset="1" stop-color="#35CBCC"/>
</linearGradient>
<linearGradient id="paint2_linear_11862_921" x1="14.9561" y1="12.7566" x2="28.5397" y2="25.3798" gradientUnits="userSpaceOnUse">
<stop stop-color="#B588B9"/>
<stop offset="0.114583" stop-color="#6694C8"/>
<stop offset="1" stop-color="#1ABEDD"/>
</linearGradient>
<linearGradient id="paint3_linear_11862_921" x1="3.15575" y1="38.2845" x2="17.2882" y2="27.9938" gradientUnits="userSpaceOnUse">
<stop stop-color="#B1D5BB"/>
<stop offset="1" stop-color="#A68266"/>
</linearGradient>
<linearGradient id="paint4_linear_11862_921" x1="-0.558515" y1="33.8938" x2="17.9674" y2="28.7913" gradientUnits="userSpaceOnUse">
<stop stop-color="#AE6D57"/>
<stop offset="1" stop-color="#A07D62"/>
</linearGradient>
<linearGradient id="paint5_linear_11862_921" x1="55.9812" y1="19.7581" x2="32.2441" y2="32.244" gradientUnits="userSpaceOnUse">
<stop stop-color="#D7622A"/>
<stop offset="0.104167" stop-color="#B17287"/>
<stop offset="0.328125" stop-color="#8B9299"/>
<stop offset="0.666667" stop-color="#1F96B2"/>
<stop offset="1" stop-color="#D17322"/>
</linearGradient>
<linearGradient id="paint6_linear_11862_921" x1="43.7912" y1="28.0737" x2="33.4791" y2="33.8887" gradientUnits="userSpaceOnUse">
<stop stop-color="#D48717"/>
<stop offset="1" stop-color="#D17322"/>
</linearGradient>
<linearGradient id="paint7_linear_11862_921" x1="58.1763" y1="30.5954" x2="35.2625" y2="29.2234" gradientUnits="userSpaceOnUse">
<stop stop-color="#26B1BF"/>
<stop offset="1" stop-color="#CF7424"/>
</linearGradient>
<linearGradient id="paint8_linear_11862_921" x1="58.7252" y1="25.6564" x2="44.0439" y2="26.6168" gradientUnits="userSpaceOnUse">
<stop stop-color="#C4A733"/>
<stop offset="1" stop-color="#9C8854"/>
</linearGradient>
<linearGradient id="paint9_linear_11862_921" x1="52.0014" y1="10.2937" x2="29.7736" y2="27.9936" gradientUnits="userSpaceOnUse">
<stop stop-color="#C61F89"/>
<stop offset="0.479167" stop-color="#63AAC3"/>
<stop offset="1" stop-color="#21C1D9"/>
</linearGradient>
<linearGradient id="paint10_linear_11862_921" x1="2.46973" y1="15.9391" x2="13.3357" y2="22.3712" gradientUnits="userSpaceOnUse">
<stop stop-color="#B338B6"/>
<stop offset="1" stop-color="#7882B5"/>
</linearGradient>
<linearGradient id="paint11_linear_11862_921" x1="27.5791" y1="0.548834" x2="29.0884" y2="17.2883" gradientUnits="userSpaceOnUse">
<stop stop-color="#4B70CC"/>
<stop offset="1" stop-color="#2EA0DB"/>
</linearGradient>
<linearGradient id="paint12_linear_11862_921" x1="20.5815" y1="6.44593" x2="29.0885" y2="22.4993" gradientUnits="userSpaceOnUse">
<stop stop-color="#BB70DB"/>
<stop offset="1" stop-color="#14BCE1"/>
</linearGradient>
<linearGradient id="paint13_linear_11862_921" x1="1.50929" y1="26.8951" x2="26.6184" y2="33.2067" gradientUnits="userSpaceOnUse">
<stop stop-color="#4094A2"/>
<stop offset="0.510417" stop-color="#B17C5C"/>
<stop offset="1" stop-color="#40B3BF"/>
</linearGradient>
<linearGradient id="paint14_linear_11862_921" x1="42.8025" y1="10.0199" x2="29.471" y2="22.8555" gradientUnits="userSpaceOnUse">
<stop stop-color="#BF238A"/>
<stop offset="1" stop-color="#15BCE1"/>
</linearGradient>
</defs>
</svg>
